<svg width="113" height="28" viewBox="0 0 113 28" fill="none" xmlns="http://www.w3.org/2000/svg">
<path fill-rule="evenodd" clip-rule="evenodd" d="M0.767578 12.1561C0.767578 6.49201 5.35921 1.90039 11.0233 1.90039H11.7288C15.0204 1.90039 17.9498 3.45108 19.8263 5.86177H16.4521C13.6943 5.86177 11.445 8.03875 11.3289 10.768H10.1485C9.90734 10.768 9.67392 10.8529 9.4892 11.0079L1.01969 18.1155C0.85468 17.3853 0.767578 16.6255 0.767578 15.8454V12.1561ZM16.4521 22.1393H19.8267C17.9501 24.5502 15.0206 26.1011 11.7288 26.1011H11.0233C6.5043 26.1011 2.66798 23.1783 1.30151 19.1201C4.89415 16.9846 8.81623 14.9719 11.3242 14.3303V17.0114C11.3242 19.8435 13.62 22.1393 16.4521 22.1393ZM14.0372 14.6514C13.2347 14.6514 12.5842 14.0009 12.5842 13.1985V11.6818C12.5842 10.8794 13.2347 10.2289 14.0372 10.2289H14.8048V14.6514H14.0372Z" fill="#0A102F"/>
<path d="M27.337 24.2861C26.0973 24.2861 25.0095 23.9911 24.0738 23.401C23.144 22.8109 22.4168 21.9855 21.8924 20.9245C21.3738 19.8636 21.1145 18.6239 21.1145 17.2054C21.1145 15.7749 21.3738 14.5263 21.8924 13.4594C22.4168 12.3925 23.144 11.5641 24.0738 10.974C25.0095 10.384 26.0973 10.0889 27.337 10.0889C28.5767 10.0889 29.6615 10.384 30.5912 10.974C31.527 11.5641 32.2541 12.3925 32.7727 13.4594C33.2972 14.5263 33.5594 15.7749 33.5594 17.2054C33.5594 18.6239 33.2972 19.8636 32.7727 20.9245C32.2541 21.9855 31.527 22.8109 30.5912 23.401C29.6615 23.9911 28.5767 24.2861 27.337 24.2861ZM27.337 22.3907C28.2787 22.3907 29.0535 22.1494 29.6615 21.6666C30.2694 21.1838 30.7194 20.5491 31.0114 19.7623C31.3035 18.9756 31.4495 18.1233 31.4495 17.2054C31.4495 16.2875 31.3035 15.4322 31.0114 14.6395C30.7194 13.8468 30.2694 13.2061 29.6615 12.7174C29.0535 12.2286 28.2787 11.9843 27.337 11.9843C26.3953 11.9843 25.6204 12.2286 25.0125 12.7174C24.4046 13.2061 23.9546 13.8468 23.6625 14.6395C23.3705 15.4322 23.2245 16.2875 23.2245 17.2054C23.2245 18.1233 23.3705 18.9756 23.6625 19.7623C23.9546 20.5491 24.4046 21.1838 25.0125 21.6666C25.6204 22.1494 26.3953 22.3907 27.337 22.3907ZM38.8901 15.7392V24H36.7802V10.2677H38.8185V12.4134H38.9973C39.3192 11.7161 39.8079 11.1558 40.4635 10.7326C41.1192 10.3035 41.9655 10.0889 43.0026 10.0889C43.9324 10.0889 44.7459 10.2797 45.4433 10.6611C46.1406 11.0366 46.683 11.6088 47.0704 12.3776C47.4578 13.1405 47.6515 14.1061 47.6515 15.2743V24H45.5416V15.4173C45.5416 14.3385 45.2615 13.4982 44.7012 12.8962C44.141 12.2882 43.3721 11.9843 42.3946 11.9843C41.7211 11.9843 41.1192 12.1303 40.5887 12.4223C40.0642 12.7144 39.65 13.1405 39.346 13.7008C39.042 14.2611 38.8901 14.9405 38.8901 15.7392ZM57.6222 10.2677V12.0558H50.2196V10.2677H57.6222ZM52.4368 24V8.37239C52.4368 7.58565 52.6216 6.93003 52.9911 6.40553C53.3606 5.88103 53.8404 5.48766 54.4305 5.22541C55.0206 4.96316 55.6434 4.83204 56.299 4.83204C56.8176 4.83204 57.2407 4.87376 57.5685 4.9572C57.8963 5.04065 58.1407 5.11813 58.3016 5.18965L57.6937 7.01347C57.5864 6.97771 57.4374 6.93301 57.2467 6.87936C57.0619 6.82572 56.8176 6.7989 56.5136 6.7989C55.8162 6.7989 55.3126 6.97473 55.0027 7.32638C54.6987 7.67803 54.5467 8.19359 54.5467 8.87305V24H52.4368ZM60.5792 24V10.2677H62.6891V24H60.5792ZM61.652 7.97902C61.2408 7.97902 60.8861 7.83895 60.5881 7.55883C60.2961 7.2787 60.15 6.94195 60.15 6.54857C60.15 6.1552 60.2961 5.81845 60.5881 5.53832C60.8861 5.25819 61.2408 5.11813 61.652 5.11813C62.0633 5.11813 62.4149 5.25819 62.707 5.53832C63.005 5.81845 63.154 6.1552 63.154 6.54857C63.154 6.94195 63.005 7.2787 62.707 7.55883C62.4149 7.83895 62.0633 7.97902 61.652 7.97902ZM72.1323 24.2861C70.8449 24.2861 69.7363 23.9821 68.8065 23.3742C67.8767 22.7662 67.1615 21.9288 66.6608 20.862C66.1601 19.7951 65.9098 18.5762 65.9098 17.2054C65.9098 15.8107 66.1661 14.5799 66.6787 13.5131C67.1972 12.4402 67.9184 11.6028 68.8422 11.0008C69.772 10.3929 70.8568 10.0889 72.0965 10.0889C73.062 10.0889 73.9322 10.2677 74.7071 10.6253C75.4819 10.983 76.1166 11.4836 76.6113 12.1273C77.106 12.771 77.413 13.522 77.5322 14.3803H75.4223C75.2614 13.7544 74.9037 13.2001 74.3494 12.7174C73.8011 12.2286 73.062 11.9843 72.1323 11.9843C71.3097 11.9843 70.5886 12.1988 69.9687 12.628C69.3548 13.0511 68.875 13.6501 68.5293 14.425C68.1896 15.1938 68.0197 16.0968 68.0197 17.1339C68.0197 18.1948 68.1866 19.1186 68.5204 19.9054C68.8601 20.6921 69.3369 21.303 69.9508 21.7381C70.5707 22.1732 71.2978 22.3907 72.1323 22.3907C72.6806 22.3907 73.1783 22.2954 73.6253 22.1047C74.0723 21.9139 74.4508 21.6398 74.7607 21.2822C75.0706 20.9245 75.2912 20.4954 75.4223 19.9948H77.5322C77.413 20.8053 77.1179 21.5355 76.6471 22.1851C76.1822 22.8288 75.5653 23.3414 74.7965 23.7229C74.0336 24.0983 73.1455 24.2861 72.1323 24.2861ZM86.1953 24.2861C84.9556 24.2861 83.8679 23.9911 82.9321 23.401C82.0023 22.8109 81.2752 21.9855 80.7507 20.9245C80.2321 19.8636 79.9729 18.6239 79.9729 17.2054C79.9729 15.7749 80.2321 14.5263 80.7507 13.4594C81.2752 12.3925 82.0023 11.5641 82.9321 10.974C83.8679 10.384 84.9556 10.0889 86.1953 10.0889C87.435 10.0889 88.5198 10.384 89.4496 10.974C90.3853 11.5641 91.1125 12.3925 91.631 13.4594C92.1555 14.5263 92.4177 15.7749 92.4177 17.2054C92.4177 18.6239 92.1555 19.8636 91.631 20.9245C91.1125 21.9855 90.3853 22.8109 89.4496 23.401C88.5198 23.9911 87.435 24.2861 86.1953 24.2861ZM86.1953 22.3907C87.137 22.3907 87.9118 22.1494 88.5198 21.6666C89.1277 21.1838 89.5777 20.5491 89.8698 19.7623C90.1618 18.9756 90.3078 18.1233 90.3078 17.2054C90.3078 16.2875 90.1618 15.4322 89.8698 14.6395C89.5777 13.8468 89.1277 13.2061 88.5198 12.7174C87.9118 12.2286 87.137 11.9843 86.1953 11.9843C85.2536 11.9843 84.4788 12.2286 83.8708 12.7174C83.2629 13.2061 82.8129 13.8468 82.5209 14.6395C82.2288 15.4322 82.0828 16.2875 82.0828 17.2054C82.0828 18.1233 82.2288 18.9756 82.5209 19.7623C82.8129 20.5491 83.2629 21.1838 83.8708 21.6666C84.4788 22.1494 85.2536 22.3907 86.1953 22.3907ZM97.7484 15.7392V24H95.6385V10.2677H97.6769V12.4134H97.8557C98.1775 11.7161 98.6663 11.1558 99.3219 10.7326C99.9775 10.3035 100.824 10.0889 101.861 10.0889C102.791 10.0889 103.604 10.2797 104.302 10.6611C104.999 11.0366 105.541 11.6088 105.929 12.3776C106.316 13.1405 106.51 14.1061 106.51 15.2743V24H104.4V15.4173C104.4 14.3385 104.12 13.4982 103.56 12.8962C102.999 12.2882 102.23 11.9843 101.253 11.9843C100.579 11.9843 99.9775 12.1303 99.447 12.4223C98.9225 12.7144 98.5083 13.1405 98.2043 13.7008C97.9004 14.2611 97.7484 14.9405 97.7484 15.7392Z" fill="#0A102F"/>
</svg>
