<svg width="24" height="29" viewBox="0 0 24 29" fill="none" xmlns="http://www.w3.org/2000/svg">
<path d="M21.3333 0.667969H2.66667C1.18667 0.667969 0 1.86797 0 3.33464V22.0013C0 23.468 1.18667 24.668 2.66667 24.668H8L12 28.668L16 24.668H21.3333C22.8 24.668 24 23.468 24 22.0013V3.33464C24 1.86797 22.8 0.667969 21.3333 0.667969ZM21.3333 22.0013H14.8933L14.1067 22.788L12 24.8946L9.88 22.7746L9.10667 22.0013H2.66667V3.33464H21.3333V22.0013ZM12 12.668C14.2 12.668 16 10.868 16 8.66797C16 6.46797 14.2 4.66797 12 4.66797C9.8 4.66797 8 6.46797 8 8.66797C8 10.868 9.8 12.668 12 12.668ZM12 7.33464C12.7333 7.33464 13.3333 7.93464 13.3333 8.66797C13.3333 9.4013 12.7333 10.0013 12 10.0013C11.2667 10.0013 10.6667 9.4013 10.6667 8.66797C10.6667 7.93464 11.2667 7.33464 12 7.33464ZM20 18.7746C20 15.4413 14.7067 14.0013 12 14.0013C9.29333 14.0013 4 15.4413 4 18.7746V20.668H20V18.7746ZM7.30667 18.0013C8.29333 17.3213 10.28 16.668 12 16.668C13.72 16.668 15.7067 17.3213 16.6933 18.0013H7.30667Z" fill="white"/>
</svg>
