<svg width="24" height="16" viewBox="0 0 24 16" fill="none" xmlns="http://www.w3.org/2000/svg">
<path d="M19.35 6.04C18.67 2.59 15.64 0 12 0C9.11 0 6.6 1.64 5.35 4.04C2.34 4.36 0 6.91 0 10C0 13.31 2.69 16 6 16H19C21.76 16 24 13.76 24 11C24 8.36 21.95 6.22 19.35 6.04ZM19 14H6C3.79 14 2 12.21 2 10C2 7.95 3.53 6.24 5.56 6.03L6.63 5.92L7.13 4.97C8.08 3.14 9.94 2 12 2C14.62 2 16.88 3.86 17.39 6.43L17.69 7.93L19.22 8.04C20.78 8.14 22 9.45 22 11C22 12.65 20.65 14 19 14ZM13.45 6H10.55V9H8L12 13L16 9H13.45V6Z" fill="#545558"/>
</svg>
