<svg width="57" height="44" viewBox="0 0 57 44" fill="none" xmlns="http://www.w3.org/2000/svg">
<rect width="57" height="43.1935" transform="translate(0 0.455078)" fill="#D6DCFB"/>
<rect x="14.6465" y="4.45508" width="30.8544" height="35.1935" rx="14.9142" fill="#232330"/>
<path d="M29.998 17.6739C29.998 13.5554 33.3367 10.2168 37.4551 10.2168H46.4947V33.8882H37.4551C33.3367 33.8882 29.998 30.5495 29.998 26.4311V17.6739Z" fill="#D6DCFB"/>
<path d="M27.3295 17.7005C27.5981 17.4751 27.9376 17.3516 28.2882 17.3516H32.6593C32.6593 17.3516 37.5733 23.2451 32.6593 22.2802C27.7454 21.3153 8.55293 33.2164 4 37.2785L27.3295 17.7005Z" fill="#D6DCFB"/>
<path d="M31.8301 20.8871C31.8301 22.054 32.7761 23 33.943 23H35.0594V16.5686H33.943C32.7761 16.5686 31.8301 17.5145 31.8301 18.6815V20.8871Z" fill="#232330"/>
</svg>
