<svg width="204" height="81" viewBox="0 0 204 81" fill="none" xmlns="http://www.w3.org/2000/svg">
<path fill-rule="evenodd" clip-rule="evenodd" d="M20 37.6759C20 29.439 26.6773 22.7617 34.9142 22.7617H35.9402C40.7274 22.7617 44.9878 25.0172 47.7167 28.5234H42.8087C38.7982 28.5234 35.5272 31.6893 35.3584 35.6582H33.6417C33.2911 35.6582 32.9516 35.7818 32.683 36.0072L20.3668 46.3429C20.1267 45.2808 20 44.1757 20 43.041V37.6759ZM42.8087 52.1948H47.7157C44.9867 55.7003 40.7268 57.9552 35.9402 57.9552H34.9142C28.3428 57.9552 22.764 53.7052 20.7767 47.8039C26.0011 44.6985 31.7045 41.7717 35.3516 40.8387V44.7377C35.3516 48.8561 38.6902 52.1948 42.8087 52.1948ZM39.2965 41.3066C38.1296 41.3066 37.1836 40.3606 37.1836 39.1937V36.9881C37.1836 35.8212 38.1296 34.8752 39.2965 34.8752H40.4129V41.3066H39.2965Z" fill="#FCFCFF"/>
<path d="M58.6359 55.416C56.8331 55.416 55.2513 54.987 53.8905 54.1289C52.5383 53.2708 51.4809 52.0704 50.7181 50.5276C49.9641 48.9847 49.587 47.1819 49.587 45.119C49.587 43.0388 49.9641 41.223 50.7181 39.6715C51.4809 38.12 52.5383 36.9152 53.8905 36.0571C55.2513 35.199 56.8331 34.77 58.6359 34.77C60.4388 34.77 62.0163 35.199 63.3684 36.0571C64.7292 36.9152 65.7866 38.12 66.5407 39.6715C67.3034 41.223 67.6848 43.0388 67.6848 45.119C67.6848 47.1819 67.3034 48.9847 66.5407 50.5276C65.7866 52.0704 64.7292 53.2708 63.3684 54.1289C62.0163 54.987 60.4388 55.416 58.6359 55.416ZM58.6359 52.6598C60.0054 52.6598 61.1322 52.3087 62.0163 51.6067C62.9003 50.9046 63.5547 49.9815 63.9795 48.8374C64.4042 47.6933 64.6165 46.4538 64.6165 45.119C64.6165 43.7842 64.4042 42.5404 63.9795 41.3877C63.5547 40.2349 62.9003 39.3031 62.0163 38.5924C61.1322 37.8816 60.0054 37.5263 58.6359 37.5263C57.2665 37.5263 56.1397 37.8816 55.2556 38.5924C54.3715 39.3031 53.7171 40.2349 53.2924 41.3877C52.8677 42.5404 52.6553 43.7842 52.6553 45.119C52.6553 46.4538 52.8677 47.6933 53.2924 48.8374C53.7171 49.9815 54.3715 50.9046 55.2556 51.6067C56.1397 52.3087 57.2665 52.6598 58.6359 52.6598ZM75.4368 42.9868V55H72.3685V35.03H75.3328V38.1503H75.5929C76.0609 37.1362 76.7716 36.3215 77.7251 35.7061C78.6785 35.082 79.9093 34.77 81.4174 34.77C82.7696 34.77 83.9527 35.0474 84.9668 35.6021C85.9809 36.1481 86.7696 36.9802 87.333 38.0983C87.8964 39.2078 88.1781 40.6119 88.1781 42.3107V55H85.1098V42.5188C85.1098 40.9499 84.7024 39.7278 83.8877 38.8524C83.0729 37.9683 81.9548 37.5263 80.5333 37.5263C79.5539 37.5263 78.6785 37.7386 77.9071 38.1633C77.1443 38.588 76.5419 39.2078 76.0999 40.0225C75.6579 40.8373 75.4368 41.8254 75.4368 42.9868ZM102.678 35.03V37.6303H91.9127V35.03H102.678ZM95.137 55V32.2738C95.137 31.1296 95.4057 30.1762 95.9431 29.4135C96.4805 28.6507 97.1782 28.0787 98.0363 27.6973C98.8944 27.3159 99.8002 27.1252 100.754 27.1252C101.508 27.1252 102.123 27.1859 102.6 27.3073C103.076 27.4286 103.432 27.5413 103.666 27.6453L102.782 30.2976C102.626 30.2456 102.409 30.1805 102.132 30.1025C101.863 30.0245 101.508 29.9855 101.066 29.9855C100.052 29.9855 99.3191 30.2412 98.8684 30.7526C98.4264 31.264 98.2053 32.0137 98.2053 33.0018V55H95.137ZM106.978 55V35.03H110.046V55H106.978ZM108.538 31.7017C107.94 31.7017 107.424 31.498 106.991 31.0906C106.566 30.6833 106.354 30.1935 106.354 29.6215C106.354 29.0494 106.566 28.5597 106.991 28.1523C107.424 27.745 107.94 27.5413 108.538 27.5413C109.136 27.5413 109.648 27.745 110.072 28.1523C110.506 28.5597 110.722 29.0494 110.722 29.6215C110.722 30.1935 110.506 30.6833 110.072 31.0906C109.648 31.498 109.136 31.7017 108.538 31.7017ZM123.779 55.416C121.907 55.416 120.295 54.974 118.942 54.0899C117.59 53.2058 116.55 51.988 115.822 50.4365C115.094 48.8851 114.73 47.1126 114.73 45.119C114.73 43.0908 115.103 41.301 115.848 39.7495C116.602 38.1893 117.651 36.9715 118.994 36.0961C120.347 35.212 121.924 34.77 123.727 34.77C125.131 34.77 126.396 35.03 127.523 35.5501C128.65 36.0701 129.573 36.7982 130.293 37.7343C131.012 38.6704 131.458 39.7625 131.632 41.0106H128.563C128.329 40.1005 127.809 39.2944 127.003 38.5924C126.206 37.8816 125.131 37.5263 123.779 37.5263C122.583 37.5263 121.534 37.8383 120.633 38.4624C119.74 39.0778 119.042 39.9488 118.539 41.0756C118.045 42.1937 117.798 43.5069 117.798 45.015C117.798 46.5578 118.041 47.9013 118.526 49.0454C119.02 50.1895 119.714 51.0779 120.607 51.7107C121.508 52.3434 122.565 52.6598 123.779 52.6598C124.576 52.6598 125.3 52.5211 125.95 52.2437C126.6 51.9664 127.151 51.5677 127.601 51.0476C128.052 50.5276 128.373 49.9035 128.563 49.1754H131.632C131.458 50.3542 131.029 51.416 130.345 52.3607C129.668 53.2968 128.771 54.0422 127.653 54.597C126.544 55.143 125.252 55.416 123.779 55.416ZM144.23 55.416C142.427 55.416 140.845 54.987 139.484 54.1289C138.132 53.2708 137.075 52.0704 136.312 50.5276C135.558 48.9847 135.181 47.1819 135.181 45.119C135.181 43.0388 135.558 41.223 136.312 39.6715C137.075 38.12 138.132 36.9152 139.484 36.0571C140.845 35.199 142.427 34.77 144.23 34.77C146.033 34.77 147.61 35.199 148.962 36.0571C150.323 36.9152 151.381 38.12 152.135 39.6715C152.897 41.223 153.279 43.0388 153.279 45.119C153.279 47.1819 152.897 48.9847 152.135 50.5276C151.381 52.0704 150.323 53.2708 148.962 54.1289C147.61 54.987 146.033 55.416 144.23 55.416ZM144.23 52.6598C145.599 52.6598 146.726 52.3087 147.61 51.6067C148.494 50.9046 149.149 49.9815 149.573 48.8374C149.998 47.6933 150.21 46.4538 150.21 45.119C150.21 43.7842 149.998 42.5404 149.573 41.3877C149.149 40.2349 148.494 39.3031 147.61 38.5924C146.726 37.8816 145.599 37.5263 144.23 37.5263C142.86 37.5263 141.734 37.8816 140.85 38.5924C139.965 39.3031 139.311 40.2349 138.886 41.3877C138.462 42.5404 138.249 43.7842 138.249 45.119C138.249 46.4538 138.462 47.6933 138.886 48.8374C139.311 49.9815 139.965 50.9046 140.85 51.6067C141.734 52.3087 142.86 52.6598 144.23 52.6598ZM161.031 42.9868V55H157.962V35.03H160.927V38.1503H161.187C161.655 37.1362 162.366 36.3215 163.319 35.7061C164.272 35.082 165.503 34.77 167.011 34.77C168.364 34.77 169.547 35.0474 170.561 35.6021C171.575 36.1481 172.364 36.9802 172.927 38.0983C173.49 39.2078 173.772 40.6119 173.772 42.3107V55H170.704V42.5188C170.704 40.9499 170.296 39.7278 169.482 38.8524C168.667 37.9683 167.549 37.5263 166.127 37.5263C165.148 37.5263 164.272 37.7386 163.501 38.1633C162.738 38.588 162.136 39.2078 161.694 40.0225C161.252 40.8373 161.031 41.8254 161.031 42.9868Z" fill="white"/>
</svg>
