<svg width="636" height="456" viewBox="0 0 636 456" fill="none" xmlns="http://www.w3.org/2000/svg">
<g filter="url(#filter0_d_269_3565)">
<rect width="540" height="360" transform="translate(48 40)" fill="#232330"/>
<path d="M129.76 255.053C129.159 254.109 128.602 252.823 128.087 251.194C127.573 249.564 127.316 247.849 127.316 246.048C127.316 242.703 128.045 240.302 129.502 238.844C131.046 237.386 133.019 236.657 135.42 236.657H191.508C192.108 237.6 192.666 238.887 193.18 240.516C193.695 242.146 193.952 243.861 193.952 245.662C193.952 249.007 193.18 251.408 191.637 252.866C190.179 254.324 188.249 255.053 185.848 255.053H171.568V314.485C170.625 314.743 169.124 315 167.066 315.257C165.093 315.515 163.121 315.643 161.148 315.643C159.176 315.643 157.418 315.472 155.874 315.129C154.416 314.871 153.173 314.357 152.143 313.585C151.114 312.813 150.342 311.741 149.828 310.369C149.313 308.997 149.056 307.196 149.056 304.966V255.053H129.76Z" fill="#99A8F6"/>
<path d="M495.88 204.286C491.849 204.286 488.59 203.493 486.103 201.907C483.616 200.32 481.794 198.305 480.636 195.86C479.478 193.373 478.899 190.779 478.899 188.078V150.771H469.123L470.409 139.129H478.899V124.464L493.243 122.985V139.129H508.294V150.771H493.243V181.324C493.243 184.883 493.457 187.456 493.886 189.042C494.315 190.586 495.301 191.572 496.845 192.001C498.389 192.387 500.876 192.58 504.306 192.58H508.165L506.943 204.286H495.88Z" fill="#ECA8A8"/>
<path d="M363.231 246.08C366.49 241.792 369.577 237.718 372.493 233.859C375.495 229.914 378.582 225.754 381.755 221.38C382.098 221.295 382.399 221.252 382.656 221.252C382.913 221.252 383.17 221.252 383.428 221.252C386.258 221.252 388.488 221.895 390.117 223.181C391.747 224.382 392.561 225.969 392.561 227.941C392.561 229.485 392.218 230.9 391.532 232.186C390.846 233.387 389.602 234.974 387.801 236.946C385.314 240.034 382.742 243.121 380.083 246.208C377.424 249.296 374.809 252.34 372.236 255.342L367.476 258.172C364.474 262.374 361.387 266.662 358.214 271.036C355.126 275.324 352.039 279.57 348.952 283.772C348.78 283.772 348.437 283.772 347.922 283.772C347.408 283.858 347.022 283.9 346.765 283.9C343.763 283.9 341.447 283.257 339.818 281.971C338.274 280.684 337.502 279.098 337.502 277.211C337.502 275.839 337.803 274.595 338.403 273.48C339.003 272.366 340.161 270.822 341.876 268.849C344.878 265.076 347.922 261.345 351.01 257.658C354.183 253.97 357.313 250.282 360.401 246.594L363.231 246.08ZM373.136 249.553C376.481 254.098 379.869 258.601 383.299 263.06C386.815 267.52 390.289 271.98 393.719 276.439C393.376 278.755 392.475 280.599 391.018 281.971C389.56 283.343 387.716 284.029 385.486 284.029C383.342 284.029 381.541 283.429 380.083 282.228C378.711 281.027 377.296 279.398 375.838 277.34C373.436 274.081 370.992 270.693 368.505 267.177C366.018 263.575 363.617 260.187 361.301 257.014L358.214 254.57C354.526 250.196 351.01 245.951 347.665 241.835C344.32 237.718 340.89 233.516 337.374 229.228C337.888 226.826 338.875 224.897 340.333 223.439C341.791 221.981 343.549 221.252 345.607 221.252C347.665 221.252 349.252 221.766 350.367 222.796C351.567 223.825 352.854 225.24 354.226 227.041C356.627 230.214 359.114 233.601 361.687 237.203C364.26 240.72 366.876 244.193 369.534 247.623L373.136 249.553Z" fill="#73C295"/>
<path d="M259.412 159.166C259.412 153.555 259.998 150.31 261.171 149.43C262.343 148.551 263.662 147.671 265.128 146.792C266.594 145.871 268.206 144.97 269.965 144.091C271.723 143.212 273.545 142.374 275.429 141.578C277.356 140.783 279.24 140.071 281.083 139.443C285.019 138.103 287.95 137.433 289.877 137.433C291.845 137.433 293.436 137.537 294.65 137.747C295.865 137.914 296.974 138.207 297.979 138.626C300.283 139.589 301.581 140.992 301.874 142.835C303.256 151.587 303.947 162.014 303.947 174.116V177.822L273.859 178.199V186.364C277.125 187.16 281.02 187.893 285.542 188.563L296.346 190.322C299.11 190.74 301.937 191.222 304.826 191.766L301.12 205.523C289.604 203.722 277.377 200.812 264.437 196.791C261.464 195.828 259.935 194.091 259.852 191.578L259.412 159.166ZM289.814 164.317C289.814 160.381 289.416 156.235 288.62 151.88C286.945 151.88 285.605 151.964 284.6 152.131C283.595 152.299 282.59 152.529 281.585 152.822C280.58 153.115 279.554 153.45 278.507 153.827C276.037 154.706 274.403 155.46 273.608 156.088V167.395L289.814 165.636V164.317Z" fill="#FCFCFF"/>
</g>
<defs>
<filter id="filter0_d_269_3565" x="0" y="0" width="636" height="456" filterUnits="userSpaceOnUse" color-interpolation-filters="sRGB">
<feFlood flood-opacity="0" result="BackgroundImageFix"/>
<feColorMatrix in="SourceAlpha" type="matrix" values="0 0 0 0 0 0 0 0 0 0 0 0 0 0 0 0 0 0 127 0" result="hardAlpha"/>
<feMorphology radius="8" operator="dilate" in="SourceAlpha" result="effect1_dropShadow_269_3565"/>
<feOffset dy="8"/>
<feGaussianBlur stdDeviation="20"/>
<feComposite in2="hardAlpha" operator="out"/>
<feColorMatrix type="matrix" values="0 0 0 0 0.196078 0 0 0 0 0.313726 0 0 0 0 0.92549 0 0 0 0.24 0"/>
<feBlend mode="normal" in2="BackgroundImageFix" result="effect1_dropShadow_269_3565"/>
<feBlend mode="normal" in="SourceGraphic" in2="effect1_dropShadow_269_3565" result="shape"/>
</filter>
</defs>
</svg>
