<svg width="68" height="76" viewBox="0 0 68 76" fill="none" xmlns="http://www.w3.org/2000/svg">
<path fill-rule="evenodd" clip-rule="evenodd" d="M20 34.9142C20 26.6773 26.6773 20 34.9142 20H35.9402C40.7274 20 44.9878 22.2555 47.7167 25.7617H42.8087C38.7982 25.7617 35.5272 28.9276 35.3584 32.8965H33.6417C33.2911 32.8965 32.9516 33.02 32.683 33.2455L20.3668 43.5812C20.1267 42.5191 20 41.414 20 40.2793V34.9142ZM42.8087 49.4331H47.7157C44.9867 52.9386 40.7268 55.1935 35.9402 55.1935H34.9142C28.3428 55.1935 22.764 50.9435 20.7767 45.0422C26.0011 41.9367 31.7045 39.01 35.3516 38.077V41.976C35.3516 46.0944 38.6902 49.4331 42.8087 49.4331ZM39.2965 38.5449C38.1296 38.5449 37.1836 37.5989 37.1836 36.432V34.2264C37.1836 33.0595 38.1296 32.1135 39.2965 32.1135H40.4129V38.5449H39.2965Z" fill="#FCFCFF"/>
</svg>
