<svg width="19" height="19" viewBox="0 0 19 19" fill="none" xmlns="http://www.w3.org/2000/svg">
<path d="M16.93 6.35043L13.33 8.03042L11 5.70042V4.30043L13.33 1.97043L16.93 3.65042C17.31 3.83043 17.75 3.66042 17.93 3.29042C18.11 2.91042 17.94 2.47042 17.57 2.29042L13.65 0.460425C13.27 0.280425 12.82 0.360425 12.52 0.660425L10.78 2.40042C10.6 2.16042 10.32 2.00042 10 2.00042C9.45 2.00042 9 2.45042 9 3.00042V4.00042H5.82C5.4 2.84043 4.3 2.00042 3 2.00042C1.34 2.00042 0 3.34043 0 5.00042C0 6.10042 0.6 7.05042 1.48 7.58042L4.08 16.0004H3C1.9 16.0004 1 16.9004 1 18.0004V19.0004H14V18.0004C14 16.9004 13.1 16.0004 12 16.0004H10.38L5.41 6.77043C5.58 6.53043 5.72 6.28043 5.82 6.00042H9V7.00042C9 7.55043 9.45 8.00042 10 8.00042C10.32 8.00042 10.6 7.84043 10.78 7.60043L12.52 9.34043C12.82 9.64043 13.27 9.72043 13.65 9.54043L17.57 7.71042C17.95 7.53043 18.11 7.09043 17.93 6.71042C17.75 6.34043 17.31 6.17043 16.93 6.35043ZM3 6.00042C2.45 6.00042 2 5.55043 2 5.00042C2 4.45042 2.45 4.00042 3 4.00042C3.55 4.00042 4 4.45042 4 5.00042C4 5.55043 3.55 6.00042 3 6.00042ZM8.11 16.0004H6.17L3.71 8.00042H3.81L8.11 16.0004Z" fill="#545558"/>
</svg>
