<svg width="22" height="27" viewBox="0 0 22 27" fill="none" xmlns="http://www.w3.org/2000/svg">
<path d="M10.9987 26.332C12.4654 26.332 13.6654 25.132 13.6654 23.6654H8.33203C8.33203 25.132 9.53203 26.332 10.9987 26.332ZM18.9987 18.332V11.6654C18.9987 7.57203 16.8254 4.14536 12.9987 3.2387V2.33203C12.9987 1.22536 12.1054 0.332031 10.9987 0.332031C9.89203 0.332031 8.9987 1.22536 8.9987 2.33203V3.2387C5.18536 4.14536 2.9987 7.5587 2.9987 11.6654V18.332L0.332031 20.9987V22.332H21.6654V20.9987L18.9987 18.332ZM16.332 19.6654H5.66536V11.6654C5.66536 8.3587 7.6787 5.66536 10.9987 5.66536C14.3187 5.66536 16.332 8.3587 16.332 11.6654V19.6654Z" fill="white"/>
</svg>
